<svg aria-hidden="true" style="position: absolute; width: 0; height: 0; overflow: hidden;" version="1.1" xmlns="http://www.w3.org/2000/svg" xmlns:xlink="http://www.w3.org/1999/xlink">
<defs>
<symbol id="icon-mobile-header-logo" viewBox="0 0 158 32">
<path fill="#fd9271" style="fill: var(--color1, #fd9271)" d="M129.377 5.627h26.333v14.629l-12.021-7.596-14.312 8.721v-15.755z"></path>
<path fill="#424242" style="fill: var(--color2, #424242)" d="M155.333 14.819l-14.103-8.522-0.418 3.337-11.751 7.033 0.104-13.707 5.432-1.848 9.976 0.36 8.879-0.051 2.403 0.513 1.201 9.343-1.462 3.953z"></path>
<path fill="#424242" style="fill: var(--color2, #424242)" d="M140.708 5.475l0.488 0.879-0.106 7.669-0.403 0.313 0.064-7.19-5.025 5.314-0.085 4.897-0.488 0.208 0.064-5.356 1.589-6.747 5.457-3.021 3.981 4.717 0.144 1.808-0.325 4.929 0.379 0.443 0.271-5.408z"></path>
<path fill="#424242" style="fill: var(--color2, #424242)" d="M151.56 11.878l-0.104 5.619 0.402 0.22 0.163-5.605z"></path>
<path fill="#424242" style="fill: var(--color2, #424242)" d="M154.848 19.633l-11.217-7.263-14.081 8.725 0.040 0.544 14.022-8.826 11.146 7.113z"></path>
<path fill="none" stroke="#424242" style="stroke: var(--color2, #424242)" stroke-linejoin="round" stroke-linecap="butt" stroke-miterlimit="10" stroke-width="1" d="M143.469 17.717l-0.052 5.017"></path>
<path fill="none" stroke="#424242" style="stroke: var(--color2, #424242)" stroke-linejoin="round" stroke-linecap="butt" stroke-miterlimit="10" stroke-width="1" d="M140.933 17.717h4.969v5.017h-4.969v-5.017z"></path>
<path fill="none" stroke="#424242" style="stroke: var(--color2, #424242)" stroke-linejoin="round" stroke-linecap="butt" stroke-miterlimit="10" stroke-width="1" d="M145.902 20.226h-4.969"></path>
<path fill="none" stroke="#424242" style="stroke: var(--color2, #424242)" stroke-linejoin="round" stroke-linecap="butt" stroke-miterlimit="10" stroke-width="3" d="M17.303 9.753h-8.058"></path>
<path fill="none" stroke="#424242" style="stroke: var(--color2, #424242)" stroke-linejoin="round" stroke-linecap="butt" stroke-miterlimit="10" stroke-width="3" d="M10.838 8.23v14.3"></path>
<path fill="none" stroke="#424242" style="stroke: var(--color2, #424242)" stroke-linejoin="round" stroke-linecap="butt" stroke-miterlimit="10" stroke-width="3" d="M10.838 17.194c0-0.838 0.691-1.518 1.544-1.518h2.346c0.853 0 1.544 0.68 1.544 1.518v2.282c0 0.838-0.691 1.518-1.544 1.518h-2.346c-0.853 0-1.544-0.68-1.544-1.518v-2.282z"></path>
<path fill="none" stroke="#424242" style="stroke: var(--color2, #424242)" stroke-linejoin="round" stroke-linecap="butt" stroke-miterlimit="10" stroke-width="3" d="M37.477 10.671l0.186 11.858"></path>
<path fill="none" stroke="#424242" style="stroke: var(--color2, #424242)" stroke-linejoin="round" stroke-linecap="butt" stroke-miterlimit="10" stroke-width="3" d="M39.090 10.004l-7.571-0"></path>
<path fill="none" stroke="#424242" style="stroke: var(--color2, #424242)" stroke-linejoin="round" stroke-linecap="butt" stroke-miterlimit="10" stroke-width="3" d="M33.309 10.671l-2.115 10.931"></path>
<path fill="none" stroke="#424242" style="stroke: var(--color2, #424242)" stroke-linejoin="round" stroke-linecap="butt" stroke-miterlimit="10" stroke-width="3" d="M40.173 20.993h-11.107"></path>
<path fill="none" stroke="#424242" style="stroke: var(--color2, #424242)" stroke-linejoin="round" stroke-linecap="butt" stroke-miterlimit="10" stroke-width="3" d="M43.009 8.23v14.302"></path>
<path fill="none" stroke="#424242" style="stroke: var(--color2, #424242)" stroke-linejoin="round" stroke-linecap="butt" stroke-miterlimit="10" stroke-width="3" d="M48.373 10.955c0-0.664 0.547-1.202 1.223-1.202h3.074c0.675 0 1.223 0.538 1.223 1.202v3.173c0 0.664-0.547 1.202-1.223 1.202h-3.074c-0.675 0-1.223-0.538-1.223-1.202v-3.173z"></path>
<path fill="none" stroke="#424242" style="stroke: var(--color2, #424242)" stroke-linejoin="round" stroke-linecap="butt" stroke-miterlimit="10" stroke-width="3" d="M48.373 16.321c0-0.664 0.547-1.202 1.223-1.202h3.074c0.675 0 1.223 0.538 1.223 1.202v3.145c0 0.664-0.547 1.202-1.223 1.202h-3.074c-0.675 0-1.223-0.538-1.223-1.202v-3.145z"></path>
<path fill="none" stroke="#424242" style="stroke: var(--color2, #424242)" stroke-linejoin="round" stroke-linecap="butt" stroke-miterlimit="10" stroke-width="3" d="M48.154 8.23l0.219 14.005"></path>
<path fill="none" stroke="#424242" style="stroke: var(--color2, #424242)" stroke-linejoin="round" stroke-linecap="butt" stroke-miterlimit="10" stroke-width="3" d="M65.766 9.753h-8.653"></path>
<path fill="none" stroke="#424242" style="stroke: var(--color2, #424242)" stroke-linejoin="round" stroke-linecap="butt" stroke-miterlimit="10" stroke-width="3" d="M65.955 20.596l-8.528 0.072"></path>
<path fill="none" stroke="#424242" style="stroke: var(--color2, #424242)" stroke-linejoin="round" stroke-linecap="butt" stroke-miterlimit="10" stroke-width="3" d="M65.767 15.245h-8.34"></path>
<path fill="none" stroke="#424242" style="stroke: var(--color2, #424242)" stroke-linejoin="round" stroke-linecap="butt" stroke-miterlimit="10" stroke-width="3" d="M58.7 8.425v13.811"></path>
<path fill="none" stroke="#424242" style="stroke: var(--color2, #424242)" stroke-linejoin="round" stroke-linecap="butt" stroke-miterlimit="10" stroke-width="3" d="M76.656 10.004h-7.333"></path>
<path fill="none" stroke="#424242" style="stroke: var(--color2, #424242)" stroke-linejoin="round" stroke-linecap="butt" stroke-miterlimit="10" stroke-width="3" d="M75.533 22.076l-0.168-13.651"></path>
<path fill="none" stroke="#424242" style="stroke: var(--color2, #424242)" stroke-linejoin="round" stroke-linecap="butt" stroke-miterlimit="10" stroke-width="3" d="M69.324 22.236l1.854-13.346"></path>
<path fill="none" stroke="#424242" style="stroke: var(--color2, #424242)" stroke-linejoin="round" stroke-linecap="butt" stroke-miterlimit="10" stroke-width="3" d="M80.519 8.23v13.846"></path>
<path fill="none" stroke="#424242" style="stroke: var(--color2, #424242)" stroke-linejoin="round" stroke-linecap="butt" stroke-miterlimit="10" stroke-width="3" d="M80.519 16.782c0-0.769 0.635-1.393 1.417-1.393h2.838c0.783 0 1.417 0.624 1.417 1.393v2.334c0 0.769-0.635 1.393-1.417 1.393h-2.838c-0.783 0-1.417-0.624-1.417-1.393v-2.334z"></path>
<path fill="none" stroke="#424242" style="stroke: var(--color2, #424242)" stroke-linejoin="round" stroke-linecap="butt" stroke-miterlimit="10" stroke-width="3" d="M90.788 8.425v13.652"></path>
<path fill="none" stroke="#424242" style="stroke: var(--color2, #424242)" stroke-linejoin="round" stroke-linecap="butt" stroke-miterlimit="10" stroke-width="3" d="M96.329 8.425v13.646"></path>
<path fill="none" stroke="#424242" style="stroke: var(--color2, #424242)" stroke-linejoin="round" stroke-linecap="butt" stroke-miterlimit="10" stroke-width="3" d="M89.91 15.245h6.419"></path>
<path fill="none" stroke="#424242" style="stroke: var(--color2, #424242)" stroke-linejoin="round" stroke-linecap="butt" stroke-miterlimit="10" stroke-width="3" d="M101.531 8.425l-0.122 13.811"></path>
<path fill="none" stroke="#424242" style="stroke: var(--color2, #424242)" stroke-linejoin="round" stroke-linecap="butt" stroke-miterlimit="10" stroke-width="3" d="M106.97 8.425l0.234 13.811"></path>
<path fill="none" stroke="#424242" style="stroke: var(--color2, #424242)" stroke-linejoin="round" stroke-linecap="butt" stroke-miterlimit="10" stroke-width="3" d="M101.409 21.601l5.56-12.453"></path>
<path fill="none" stroke="#424242" style="stroke: var(--color2, #424242)" stroke-linejoin="round" stroke-linecap="butt" stroke-miterlimit="10" stroke-width="3" d="M112.556 8.425l0.209 13.811"></path>
<path fill="none" stroke="#424242" style="stroke: var(--color2, #424242)" stroke-linejoin="round" stroke-linecap="butt" stroke-miterlimit="10" stroke-width="3" d="M117.92 8.425l-1.332 6.373"></path>
<path fill="none" stroke="#424242" style="stroke: var(--color2, #424242)" stroke-linejoin="round" stroke-linecap="butt" stroke-miterlimit="10" stroke-width="3" d="M119.81 22.071l-3.222-7.274"></path>
<path fill="none" stroke="#424242" style="stroke: var(--color2, #424242)" stroke-linejoin="round" stroke-linecap="butt" stroke-miterlimit="10" stroke-width="3" d="M111.838 14.798h5.869"></path>
<path fill="none" stroke="#424242" style="stroke: var(--color2, #424242)" stroke-linejoin="round" stroke-linecap="butt" stroke-miterlimit="10" stroke-width="3" d="M26.583 8.23v7.332h-5.467l-0.053-7.332"></path>
<path fill="none" stroke="#424242" style="stroke: var(--color2, #424242)" stroke-linejoin="round" stroke-linecap="butt" stroke-miterlimit="10" stroke-width="3" d="M26.583 20.438v0.064c0 0.271-0.224 0.491-0.5 0.491h-4.52c-0.276 0-0.5-0.22-0.5-0.491v-2.075"></path>
<path fill="none" stroke="#424242" style="stroke: var(--color2, #424242)" stroke-linejoin="round" stroke-linecap="butt" stroke-miterlimit="10" stroke-width="3" d="M25.165 15.254h1.418v5.279"></path>
<path fill="none" stroke="#424242" style="stroke: var(--color2, #424242)" stroke-linejoin="round" stroke-linecap="butt" stroke-miterlimit="10" stroke-width="4" d="M1.673 1.651h154.61v28.589h-154.61v-28.589z"></path>
<path fill="none" stroke="#424242" style="stroke: var(--color2, #424242)" stroke-linejoin="round" stroke-linecap="butt" stroke-miterlimit="10" stroke-width="6" d="M128.681 1.112c-0.531 25.993-0.133 29.128-0.133 29.128"></path>
</symbol>
</defs>
</svg>
